<mxfile host="app.diagrams.net" modified="2023-04-14T13:56:53.711Z" agent="Mozilla/5.0 (Windows NT 10.0; Win64; x64) AppleWebKit/537.36 (KHTML, like Gecko) Chrome/109.0.0.0 Safari/537.36" etag="cLa20Pu7F0WreJoIxKTm" version="21.1.4" type="device">
  <diagram name="Página-1" id="Z4R6sSvAp44J1OPs6F7z">
    <mxGraphModel dx="1434" dy="1965" grid="1" gridSize="10" guides="1" tooltips="1" connect="1" arrows="1" fold="1" page="1" pageScale="1" pageWidth="827" pageHeight="1169" math="0" shadow="0">
      <root>
        <mxCell id="0" />
        <mxCell id="1" parent="0" />
        <mxCell id="IfHbspyWy57sfWy8M2U9-26" value="&#xa;&lt;span style=&quot;color: rgb(0, 0, 0); font-family: Helvetica; font-size: 12px; font-style: normal; font-variant-ligatures: normal; font-variant-caps: normal; font-weight: 400; letter-spacing: normal; orphans: 2; text-align: center; text-indent: 0px; text-transform: none; widows: 2; word-spacing: 0px; -webkit-text-stroke-width: 0px; background-color: rgb(251, 251, 251); text-decoration-thickness: initial; text-decoration-style: initial; text-decoration-color: initial; float: none; display: inline !important;&quot;&gt;ver ordens de serviço&lt;/span&gt;&#xa;&#xa;" style="swimlane;childLayout=stackLayout;resizeParent=1;resizeParentMax=0;startSize=20;html=1;" vertex="1" parent="1">
          <mxGeometry x="241" y="60" width="1000" height="580" as="geometry" />
        </mxCell>
        <mxCell id="IfHbspyWy57sfWy8M2U9-27" value="Login" style="swimlane;startSize=20;html=1;" vertex="1" parent="IfHbspyWy57sfWy8M2U9-26">
          <mxGeometry y="20" width="440" height="560" as="geometry" />
        </mxCell>
        <mxCell id="IfHbspyWy57sfWy8M2U9-22" value="validar dados" style="rhombus;whiteSpace=wrap;html=1;fontColor=#000000;fillColor=#ffffc0;strokeColor=#ff0000;" vertex="1" parent="IfHbspyWy57sfWy8M2U9-27">
          <mxGeometry x="272.5" y="240" width="95" height="50" as="geometry" />
        </mxCell>
        <mxCell id="IfHbspyWy57sfWy8M2U9-19" value="realizar login do colaborador" style="rounded=1;whiteSpace=wrap;html=1;arcSize=40;fontColor=#000000;fillColor=#ffffc0;strokeColor=#ff0000;" vertex="1" parent="IfHbspyWy57sfWy8M2U9-27">
          <mxGeometry x="160" y="140" width="120" height="40" as="geometry" />
        </mxCell>
        <mxCell id="IfHbspyWy57sfWy8M2U9-14" value="" style="ellipse;html=1;shape=startState;fillColor=#000000;strokeColor=#ff0000;" vertex="1" parent="IfHbspyWy57sfWy8M2U9-27">
          <mxGeometry x="84" y="265" width="30" height="30" as="geometry" />
        </mxCell>
        <mxCell id="IfHbspyWy57sfWy8M2U9-15" value="" style="edgeStyle=orthogonalEdgeStyle;html=1;verticalAlign=bottom;endArrow=open;endSize=8;strokeColor=#ff0000;rounded=0;entryX=0;entryY=0.5;entryDx=0;entryDy=0;exitX=0.5;exitY=0;exitDx=0;exitDy=0;" edge="1" source="IfHbspyWy57sfWy8M2U9-14" parent="IfHbspyWy57sfWy8M2U9-27" target="IfHbspyWy57sfWy8M2U9-19">
          <mxGeometry relative="1" as="geometry">
            <mxPoint x="80" y="130" as="targetPoint" />
          </mxGeometry>
        </mxCell>
        <mxCell id="IfHbspyWy57sfWy8M2U9-35" value="yes" style="edgeStyle=orthogonalEdgeStyle;html=1;align=left;verticalAlign=top;endArrow=open;endSize=8;strokeColor=#ff0000;rounded=0;exitX=0.5;exitY=1;exitDx=0;exitDy=0;entryX=0;entryY=0.5;entryDx=0;entryDy=0;" edge="1" parent="IfHbspyWy57sfWy8M2U9-27" source="IfHbspyWy57sfWy8M2U9-19" target="IfHbspyWy57sfWy8M2U9-22">
          <mxGeometry x="1" y="62" relative="1" as="geometry">
            <mxPoint x="170" y="300" as="targetPoint" />
            <mxPoint x="195" y="240" as="sourcePoint" />
            <mxPoint x="15" y="2" as="offset" />
          </mxGeometry>
        </mxCell>
        <mxCell id="IfHbspyWy57sfWy8M2U9-36" value="enviar mensagem de erro" style="rounded=1;whiteSpace=wrap;html=1;arcSize=40;fontColor=#000000;fillColor=#ffffc0;strokeColor=#ff0000;" vertex="1" parent="IfHbspyWy57sfWy8M2U9-27">
          <mxGeometry x="260" y="410" width="120" height="40" as="geometry" />
        </mxCell>
        <mxCell id="IfHbspyWy57sfWy8M2U9-37" value="no" style="edgeStyle=orthogonalEdgeStyle;html=1;align=left;verticalAlign=top;endArrow=open;endSize=8;strokeColor=#ff0000;rounded=0;exitX=0.5;exitY=1;exitDx=0;exitDy=0;entryX=0.5;entryY=0;entryDx=0;entryDy=0;" edge="1" parent="IfHbspyWy57sfWy8M2U9-27" source="IfHbspyWy57sfWy8M2U9-22" target="IfHbspyWy57sfWy8M2U9-36">
          <mxGeometry x="-0.5484" y="25" relative="1" as="geometry">
            <mxPoint x="415" y="400" as="targetPoint" />
            <mxPoint x="160" y="410" as="sourcePoint" />
            <mxPoint x="-25" y="20" as="offset" />
          </mxGeometry>
        </mxCell>
        <mxCell id="IfHbspyWy57sfWy8M2U9-44" value="" style="ellipse;html=1;shape=endState;fillColor=#000000;strokeColor=#ff0000;" vertex="1" parent="IfHbspyWy57sfWy8M2U9-27">
          <mxGeometry x="300" y="485" width="40" height="40" as="geometry" />
        </mxCell>
        <mxCell id="IfHbspyWy57sfWy8M2U9-45" value="" style="edgeStyle=orthogonalEdgeStyle;html=1;align=left;verticalAlign=top;endArrow=open;endSize=8;strokeColor=#ff0000;rounded=0;exitX=0;exitY=0.5;exitDx=0;exitDy=0;entryX=0.5;entryY=1;entryDx=0;entryDy=0;" edge="1" parent="IfHbspyWy57sfWy8M2U9-27" source="IfHbspyWy57sfWy8M2U9-36" target="IfHbspyWy57sfWy8M2U9-14">
          <mxGeometry x="-0.5484" y="25" relative="1" as="geometry">
            <mxPoint x="100" y="300" as="targetPoint" />
            <mxPoint x="390" y="570" as="sourcePoint" />
            <mxPoint x="-25" y="20" as="offset" />
          </mxGeometry>
        </mxCell>
        <mxCell id="IfHbspyWy57sfWy8M2U9-29" value="Tela OS" style="swimlane;startSize=20;html=1;" vertex="1" parent="IfHbspyWy57sfWy8M2U9-26">
          <mxGeometry x="440" y="20" width="560" height="560" as="geometry" />
        </mxCell>
        <mxCell id="IfHbspyWy57sfWy8M2U9-41" value="ver ordens de serviço" style="rounded=1;whiteSpace=wrap;html=1;arcSize=40;fontColor=#000000;fillColor=#ffffc0;strokeColor=#ff0000;" vertex="1" parent="IfHbspyWy57sfWy8M2U9-29">
          <mxGeometry x="380" y="90" width="120" height="40" as="geometry" />
        </mxCell>
        <mxCell id="IfHbspyWy57sfWy8M2U9-54" value="fechar detalhes" style="rounded=1;whiteSpace=wrap;html=1;arcSize=40;fontColor=#000000;fillColor=#ffffc0;strokeColor=#ff0000;" vertex="1" parent="IfHbspyWy57sfWy8M2U9-29">
          <mxGeometry x="380" y="450" width="120" height="40" as="geometry" />
        </mxCell>
        <mxCell id="IfHbspyWy57sfWy8M2U9-58" value="" style="edgeStyle=orthogonalEdgeStyle;html=1;align=left;verticalAlign=top;endArrow=open;endSize=8;strokeColor=#ff0000;rounded=0;exitX=0;exitY=0.5;exitDx=0;exitDy=0;entryX=0;entryY=0.75;entryDx=0;entryDy=0;" edge="1" parent="IfHbspyWy57sfWy8M2U9-29" source="IfHbspyWy57sfWy8M2U9-54" target="IfHbspyWy57sfWy8M2U9-41">
          <mxGeometry x="-1" relative="1" as="geometry">
            <mxPoint x="309" y="250" as="targetPoint" />
            <mxPoint x="80" y="280" as="sourcePoint" />
            <Array as="points">
              <mxPoint x="249" y="470" />
              <mxPoint x="249" y="120" />
            </Array>
          </mxGeometry>
        </mxCell>
        <mxCell id="IfHbspyWy57sfWy8M2U9-62" value="sair" style="rounded=1;whiteSpace=wrap;html=1;arcSize=40;fontColor=#000000;fillColor=#ffffc0;strokeColor=#ff0000;" vertex="1" parent="IfHbspyWy57sfWy8M2U9-29">
          <mxGeometry x="10" y="450" width="120" height="40" as="geometry" />
        </mxCell>
        <mxCell id="IfHbspyWy57sfWy8M2U9-64" value="clicar em detalhes" style="rhombus;whiteSpace=wrap;html=1;fontColor=#000000;fillColor=#ffffc0;strokeColor=#ff0000;" vertex="1" parent="IfHbspyWy57sfWy8M2U9-29">
          <mxGeometry x="375" y="200" width="130" height="60" as="geometry" />
        </mxCell>
        <mxCell id="IfHbspyWy57sfWy8M2U9-71" value="no" style="edgeStyle=orthogonalEdgeStyle;html=1;align=left;verticalAlign=top;endArrow=open;endSize=8;strokeColor=#ff0000;rounded=0;exitX=1;exitY=0.5;exitDx=0;exitDy=0;entryX=1;entryY=0.5;entryDx=0;entryDy=0;" edge="1" parent="IfHbspyWy57sfWy8M2U9-29" source="IfHbspyWy57sfWy8M2U9-64" target="IfHbspyWy57sfWy8M2U9-41">
          <mxGeometry x="-0.4839" y="15" relative="1" as="geometry">
            <mxPoint x="620" y="370" as="targetPoint" />
            <mxPoint x="620" y="260" as="sourcePoint" />
            <mxPoint as="offset" />
            <Array as="points">
              <mxPoint x="529" y="230" />
              <mxPoint x="529" y="110" />
            </Array>
          </mxGeometry>
        </mxCell>
        <mxCell id="IfHbspyWy57sfWy8M2U9-73" value="" style="edgeStyle=orthogonalEdgeStyle;html=1;align=left;verticalAlign=top;endArrow=open;endSize=8;strokeColor=#ff0000;rounded=0;exitX=0;exitY=0.5;exitDx=0;exitDy=0;entryX=0.5;entryY=0;entryDx=0;entryDy=0;" edge="1" parent="IfHbspyWy57sfWy8M2U9-29" source="IfHbspyWy57sfWy8M2U9-41" target="IfHbspyWy57sfWy8M2U9-62">
          <mxGeometry x="-1" relative="1" as="geometry">
            <mxPoint x="630" y="220" as="targetPoint" />
            <mxPoint x="630" y="140" as="sourcePoint" />
          </mxGeometry>
        </mxCell>
        <mxCell id="IfHbspyWy57sfWy8M2U9-77" value="" style="edgeStyle=orthogonalEdgeStyle;html=1;align=left;verticalAlign=top;endArrow=open;endSize=8;strokeColor=#ff0000;rounded=0;entryX=0.5;entryY=0;entryDx=0;entryDy=0;exitX=0.5;exitY=1;exitDx=0;exitDy=0;" edge="1" parent="IfHbspyWy57sfWy8M2U9-29" source="IfHbspyWy57sfWy8M2U9-41" target="IfHbspyWy57sfWy8M2U9-64">
          <mxGeometry x="-1" relative="1" as="geometry">
            <mxPoint x="320" y="240" as="targetPoint" />
            <mxPoint x="380" y="240" as="sourcePoint" />
          </mxGeometry>
        </mxCell>
        <mxCell id="IfHbspyWy57sfWy8M2U9-80" value="ver comentarios" style="rounded=1;whiteSpace=wrap;html=1;arcSize=40;fontColor=#000000;fillColor=#ffffc0;strokeColor=#ff0000;" vertex="1" parent="IfHbspyWy57sfWy8M2U9-29">
          <mxGeometry x="380" y="330" width="120" height="40" as="geometry" />
        </mxCell>
        <mxCell id="IfHbspyWy57sfWy8M2U9-82" value="" style="edgeStyle=orthogonalEdgeStyle;html=1;align=left;verticalAlign=top;endArrow=open;endSize=8;strokeColor=#ff0000;rounded=0;exitX=0.5;exitY=1;exitDx=0;exitDy=0;entryX=0.5;entryY=0;entryDx=0;entryDy=0;" edge="1" parent="IfHbspyWy57sfWy8M2U9-29" source="IfHbspyWy57sfWy8M2U9-80" target="IfHbspyWy57sfWy8M2U9-54">
          <mxGeometry x="-1" relative="1" as="geometry">
            <mxPoint x="659" y="385" as="targetPoint" />
            <mxPoint x="775" y="320" as="sourcePoint" />
          </mxGeometry>
        </mxCell>
        <mxCell id="IfHbspyWy57sfWy8M2U9-74" value="yes" style="edgeStyle=orthogonalEdgeStyle;html=1;align=left;verticalAlign=top;endArrow=open;endSize=8;strokeColor=#ff0000;rounded=0;exitX=0.5;exitY=1;exitDx=0;exitDy=0;entryX=0.5;entryY=0;entryDx=0;entryDy=0;" edge="1" parent="IfHbspyWy57sfWy8M2U9-29" source="IfHbspyWy57sfWy8M2U9-64" target="IfHbspyWy57sfWy8M2U9-80">
          <mxGeometry x="-0.6667" y="20" relative="1" as="geometry">
            <mxPoint x="435" y="340" as="targetPoint" />
            <mxPoint x="570" y="190" as="sourcePoint" />
            <mxPoint as="offset" />
          </mxGeometry>
        </mxCell>
        <mxCell id="IfHbspyWy57sfWy8M2U9-40" value="" style="edgeStyle=orthogonalEdgeStyle;html=1;align=left;verticalAlign=top;endArrow=open;endSize=8;strokeColor=#ff0000;rounded=0;exitX=0.5;exitY=0;exitDx=0;exitDy=0;entryX=0.5;entryY=0;entryDx=0;entryDy=0;" edge="1" parent="IfHbspyWy57sfWy8M2U9-26" source="IfHbspyWy57sfWy8M2U9-22" target="IfHbspyWy57sfWy8M2U9-41">
          <mxGeometry x="-1" relative="1" as="geometry">
            <mxPoint x="440" y="280" as="targetPoint" />
            <mxPoint x="240" y="330" as="sourcePoint" />
            <Array as="points">
              <mxPoint x="320" y="70" />
              <mxPoint x="880" y="70" />
            </Array>
          </mxGeometry>
        </mxCell>
        <mxCell id="IfHbspyWy57sfWy8M2U9-63" value="" style="edgeStyle=orthogonalEdgeStyle;html=1;align=left;verticalAlign=top;endArrow=open;endSize=8;strokeColor=#ff0000;rounded=0;exitX=0.5;exitY=1;exitDx=0;exitDy=0;entryX=1;entryY=0.5;entryDx=0;entryDy=0;" edge="1" parent="IfHbspyWy57sfWy8M2U9-26" source="IfHbspyWy57sfWy8M2U9-62" target="IfHbspyWy57sfWy8M2U9-44">
          <mxGeometry x="-1" relative="1" as="geometry">
            <mxPoint x="840" y="510" as="targetPoint" />
            <mxPoint x="880" y="430" as="sourcePoint" />
          </mxGeometry>
        </mxCell>
        <mxCell id="IfHbspyWy57sfWy8M2U9-47" value="&lt;font style=&quot;font-size: 27px;&quot;&gt;DIAGRAMA DE ATIVIDADES&amp;nbsp;&lt;/font&gt;" style="text;html=1;align=center;verticalAlign=middle;resizable=0;points=[];autosize=1;strokeColor=none;fillColor=none;strokeWidth=1;" vertex="1" parent="1">
          <mxGeometry x="500" y="-40" width="380" height="50" as="geometry" />
        </mxCell>
        <mxCell id="IfHbspyWy57sfWy8M2U9-48" value="&lt;font style=&quot;font-size: 15px;&quot;&gt;COLABORADOR ENCERRANDO UMA OS&lt;/font&gt;" style="text;html=1;align=center;verticalAlign=middle;resizable=0;points=[];autosize=1;strokeColor=none;fillColor=none;strokeWidth=1;" vertex="1" parent="1">
          <mxGeometry x="535" y="10" width="310" height="30" as="geometry" />
        </mxCell>
      </root>
    </mxGraphModel>
  </diagram>
</mxfile>
